<?xml version="1.0" encoding="UTF-8"?>
<svg id="Layer_2" data-name="Layer 2" xmlns="http://www.w3.org/2000/svg" viewBox="0 0 172.71 58.78">
  <defs>
    <style>
      .cls-1 {
        fill: #ffffff;
      }
    </style>
  </defs>
  <g id="Layer_1-2" data-name="Layer 1">
    <g>
      <path class="cls-1" d="M129.93,13.85c0-4.23-3.1-7-7.46-7h-10.63v13.93h10.63c4.36,0,7.46-2.77,7.46-6.93m-25.82,31.49V.04h19.42c9.24,0,14.33,6.28,14.33,13.8s-5.15,13.74-14.33,13.74h-11.69v17.75h-7.73Z"/>
      <rect class="cls-1" x="38.32" y=".04" width="7.67" height="45.37"/>
      <polygon class="cls-1" points="143.17 .07 143.17 45.36 172.71 45.36 172.71 38.59 150.84 38.59 150.84 26.13 172.67 26.13 172.67 19.36 150.84 19.36 150.84 6.85 172.71 6.85 172.71 .07 143.17 .07"/>
      <polygon class="cls-1" points="12.43 14.18 0 14.18 2.08 21.85 12.43 21.85 12.43 54.36 20.1 55.99 20.1 21.85 33.03 21.85 30.78 14.18 20.1 14.18 20.1 1.63 12.43 0 12.43 14.18"/>
      <g>
        <path class="cls-1" d="M88.14,39.3c-.08-.2-.59-.9-.71-1.09-.12-.2-.34-.64-.35-.65,0-.02-.15-.31-.6-.29-.45,.01-.42-.34-.42-.34,0,0-.04-.12,.3-.37,.33-.26,.42-.71,.23-1.03-.19-.32-.16-.39-.49-.54-.33-.15-.67-.07-.67-.07,0,0-.33,.07-.44,.41-.11,.35-.07,.69-.07,.69,0,0,.01,.34,.16,.5,.15,.16,.22,.36,.22,.36,0,0,.01,.23-.19,.41,0,0-.44,.04-.6,.12-.16,.07-.47,.84-.47,.84,0,0-.22,.35-.32,1.02-.1,.66-.12,.97-.12,.97,0,0-.06,.33-.26,.39-.2,.06-.19,.14-.43-.05-.25-.19-.2-.39-.2-.39,0,0,.04-.22-.17-.43,0,0-.11-.26-.49-.4,0,0-.52-.16-.26-.39,0,0,.29-.2,.32-.39l.03-.12,.38,.31,.02-.21h.28s-.32-.26-.48-.56c-.16-.3-.13-.42-.62-.75,0,0-.49-.23-.7-.01,0,0-.16,.36-.25,.44,0,0-.19,.25-.03,.92,0,0,.47,.45,.16,.52,0,0-.48-.19-.76,.1,0,0-.28,.24-.49-.07,0,0-.2-.07-.13-.62,0,0,.02-.48-.42-.62,0,0-.18-.08,.1-.48,0,0,.13-.81-.49-1.33-.62-.52-.97-1.65-.97-1.65,0,0-.23-1.04-.6-1.27,0,0-.08-.07-.39-.09,0,0-.16-.15,.12-.22,0,0,.72-.16,.39-.93,0,0-.47-1.05-1.3-1.67,0,0-.48-.33-1.06,0,0,0-.56,.15-.48,1.13,0,0,0,.34,.16,.74,0,0,.28,.37-.32,.59,0,0-.88,.12-1.25,1.01,0,0-.12,.62-.23,.78,0,0-.33,.63-.42,.64,0,0-.12,.15-.14-.21-.03-.36-.48-2.26-.48-2.26l-.37-1.5s.04-.81-.8-1.07-.96-.31-.96-.31c0,0-.19-.15-.04-.48,0,0,.5-.79,.45-1.38,0,0-.11-1.09-.99-1.06,0,0-1.02-.32-1.09,.76-.08,1.07,.2,1.37,.2,1.37,0,0,.28,.44-.08,.63-.35,.19-1.04,.31-1.04,.31,0,0-.56,0-.75,.79-.19,.78-.28,1.46-.43,1.76-.15,.29-.1,.45-.33,.86-.23,.41-.48,1.18-.48,1.18,0,0-.52,1.79-.51,2.22,0,0-.17,.72-.36,.52,0,0-.22-.05-.07-.45,0,0,.54-1.2-.15-1.63,0,0-.31-.36-.97-.14,0,0-.11,.13-.35,0,0,0-.51-.4-.54,.04,0,0-.09,.22,.06,.51,0,0,.06,.16,.03,.36,0,0-.18,.38,.31,.73,0,0,.38,.24,0,.29,0,0-.57-.04-.6,.45,0,0-.14,.65-.1,1.57,0,0-.06,.23,.33,.51,0,0,.19,.12-.06,.3,0,0-.11,.22-.03,1.34,0,0-.07,.1,.41,.84,0,0,.13,.17,.13,.44,0,0-.04,.13,.06,.4,0,0,.12,.23-.06,.44-.18,.2-.07,.95-.07,.95,0,0,.03,.23,.11,.41,.07,.17,.07,.37,.07,.37l-.07,.39h1.29s.11-.46-.21-.44c0,0,0,0,0,0v-.44l.35-.43v-.37l.38-.7s.04-.61,0-.72c0,0-.16-.42-.06-.52,0,0,0,0,0-.01v-.35s.31-.35,.31-.35c0,0,.29-.33,.14-1.04l-.34-1.15v-.74s.77-.92,.77-.92c0,0,.46-.38-.1-.97,0,0-.15-.29,.44-1.28l.71-1.45s.39-.57,.53-.29c0,0,.17,.09-.15,.41v1.1s-.34,.15-.3,.74v.6l-.07,1.59s-.02,.19-.15,.45c0,0-.01,.18,.36,.14l.05,.57,.12,.6,.03,1.34s-.06,.51,.26,1.22c0,0,.47,.96,.52,1.66,0,0,.07,.36-.19,.64l-.8,.78s-.21,.25,.17,.23h.64s.18-.25,.29-.29c0,0,.51-.13,.6-.23,0,0,.11-.26-.09-.6,0,0-.16-.17-.18-.48,0-.15,0-1.32,.02-1.42,0,0,.21-.4-.09-1.26,0,0-.28-1.46,.03-2.39,0,0,.11-.42,.25-.37,0,0,.43-.15,.51,.25l.03,.23s-.15,1.1,.07,1.7c0,0,.28,.45,.13,1,0,0-.35,.92-.02,1.49,0,0,.16,.12,.06,1.34l-.15,1.07s-.01,.08,.21,.08h.72s.09-.1-.09-.23c0,0-.29-.14-.17-.5,0,0,.09-.89,.29-1.38,0,0,.27-1.24,.19-1.96,0,0-.09-1.57,.01-1.98,0,0,.04-.87,.25-.95,0,0,.13-.09,.44-.07,0,0,.21-3.28,.05-3.88,0,0-.3-.78-.2-1.39,0,0,.27-.47,.38-.08,.11,.39,.92,2.54,.92,2.54,0,0,.13,.28,.1,.52v.4s-.37,.33-.35,.58c0,0-.12,.86,.36,.31,0,0,.06-.18,.42-.24,0,0,1.07-.47,1.23-.84,0,0,.16,.29-.04,.84,0,0-.45,.88-.14,1.66,0,0,.3,.86,.65,1.84,0,0,.09,.53,0,.97,0,0-.13,1.09,.08,1.76,0,0,.09,.27,.09,.5,0,0-.12,.28-.03,.43,0,0,.18,.23,.03,.44,0,0-.46,.39-.08,.65l.56,.04s.1-.35,.11-.95l.26-.02s.04,.75,.03,.93c0,0,.58,.13,.74,.04,0,0,.13-.07,0-.25,0,0-.09-.75-.04-.95,0,0,.27-1.07,.32-1.74,0,0,.16-1.34,.14-1.8,0-.01,0-.03,.01-.03,.09-.06,.46-.35,.7-.67h0s.68-1.36,.46-2.95c0,0,.1-.2,.28,.03,0,0,.15,.36,.55,.63,0,0-.11,.33,.2,.33,.05,0,.33-.07,.33,.07,0,0,.08,.28,.36,.58,0,0-.44,.26,.17,.33,0,0,0,.7,.58,.89,0,0,.7,.05,.7,.57,0,0,.13,.81-.04,1.4,0,0-.16,.35-.08,1.3,0,0,.05,.56-.04,.8,0,0-.33,.25-.1,.47,0,0,.1,.48-.29,.91,0,0-.14,.11,.13,.13h.47s.05-.13-.08-.27c0,0-.13-.15,.2-.53,.04-.05,.17-.28,.18-.55,0,0,.2-.49,.42-.11,0,0,.14,.14,.05,.8,0,0-.01,.06,.03,.17,0,0,.09,.38,0,.59h1s.03-.17-.28-.23c0,0-.16,.09-.18-.41l.04-1.7s.06-.06,.06-.31c0,0,.43,.04,.44-.32v-1.12s-.03-.26,.11-.19c0,0,.06,.07,.18-.07,0,0,.81-.13,1.09,.31,0,0,.25-.03-.05-.4,0,0-.09-.52,.23-.63,0,0,.19-.09,.28-.52,0,0,.09-.54,.35-.26,0,0,.13,.34,0,.79,0,0-.39,.57-.18,1.26,0,0,0,.06,.19,.17,0,0-.09,1.02,.1,1.22,0,0,.07,.23,.21,.42,0,0,.23,.76,.06,1.31,0,0-.24,.22-.22,.47l.85-.02s.12-.39-.09-.7c0,0-.18-.16-.09-.39,0,0,.13-.39,.11-.62,0,0,.16-.4,.41-.01,0,0,.23,.2,.15,.99,0,0-.17,.22-.11,.48,0,0-.04,.16-.1,.2,0,0-.07,.21,1.18,.05,0,0,.17-.08,0-.19,0,0-.43,0-.47-.34-.04-.34,.03-1.04,.03-1.04,0,0,0-.15,.11-.17,0,0,.07-.23-.07-.47,0,0-.09-.42,0-.55,0,0,.02-.44,.23-.53,0,0,.12-.04,.08-.18,0,0-.04-.12,.03-.25,0,0,.06-1.19,0-1.47,0,0-.14-.46,.07-.16,0,0,.15,.11,.15,.23,0,0-.02,.17,.04,.19,0,0,.25,.09,.12,.29,0,0-.15,.18,0,.35,0,0-.08,.64,.22,.4,0,0,.27-.18,.1-.72,0,0-.08-.25-.05-.47,0,0,.04-.15-.09-.3-.13-.15,.28-.26,.28-.26,0,0,.35-.07,.26-.28"/>
        <path class="cls-1" d="M43.93,50c-.42-.54-1.11-.85-1.79-.85-1.66,0-2.76,1.33-2.76,3.01,0,1.56,1.03,2.89,2.76,2.89,.84,0,1.49-.38,1.93-.99l.85,.64c-.22,.31-1.11,1.29-2.8,1.29-2.35,0-3.8-1.96-3.8-3.82,0-2.3,1.58-3.95,3.85-3.95,.97,0,2,.36,2.59,1.15l-.84,.64Z"/>
        <path class="cls-1" d="M48.01,48.07h.94v3.53h.02c.24-.52,.87-.89,1.63-.89,.96,0,1.8,.57,1.8,1.89v3.38h-.94v-3.12c0-.93-.53-1.27-1.13-1.27-.78,0-1.38,.5-1.38,1.65v2.75h-.94v-7.92Z"/>
        <path class="cls-1" d="M55.48,50.68h.94v.89h.02c.24-.52,.87-.89,1.48-.89,.15,0,.29,.02,.42,.06l-.04,1.01c-.16-.04-.31-.07-.46-.07-.92,0-1.42,.5-1.42,1.59v2.71h-.94v-5.3Z"/>
        <path class="cls-1" d="M61.39,50.68h.94v5.3h-.94v-5.3Zm.47-2.64c.38,0,.69,.31,.69,.69s-.31,.69-.69,.69-.69-.32-.69-.69,.31-.69,.69-.69"/>
        <path class="cls-1" d="M68.25,52.08c-.22-.28-.54-.5-1.01-.5-.44,0-.83,.2-.83,.57,0,.61,.84,.69,1.26,.79,.82,.2,1.44,.52,1.44,1.47,0,1.14-1.02,1.59-2,1.59-.81,0-1.42-.21-1.91-.9l.71-.6c.3,.31,.66,.6,1.2,.6,.48,0,1-.2,1-.64,0-.57-.78-.68-1.19-.78-.8-.2-1.51-.46-1.51-1.44,0-1.06,.95-1.55,1.88-1.55,.65,0,1.34,.23,1.69,.83l-.73,.57Z"/>
        <path class="cls-1" d="M74.5,50.68h-1.35v3.19c0,.55,0,1.24,.71,1.24,.22,0,.48-.03,.67-.15v.86c-.22,.13-.66,.17-.84,.17-1.45,0-1.47-.99-1.47-1.78v-3.52h-1.09v-.81h1.09v-1.83h.94v1.83h1.35v.81Z"/>
        <path class="cls-1" d="M76.22,50.68h.94v5.3h-.94v-5.3Zm.47-2.64c.38,0,.69,.31,.69,.69s-.31,.69-.69,.69-.69-.32-.69-.69,.31-.69,.69-.69"/>
        <path class="cls-1" d="M83.03,53.46c-.89,0-1.98,.16-1.98,.98,0,.58,.42,.83,1.07,.83,1.05,0,1.41-.8,1.41-1.48v-.32h-.5Zm-2.65-2.02c.52-.51,1.28-.76,1.96-.76,1.46,0,2.07,.82,2.07,1.7v2.6c0,.36,.01,.66,.04,.99h-.83c-.02-.32-.03-.58-.03-.83h-.02c-.42,.65-.98,.9-1.74,.9-.92,0-1.71-.54-1.71-1.53,0-1.31,1.22-1.76,2.73-1.76h.69v-.22c0-.53-.38-1.07-1.18-1.07-.72,0-1.07,.31-1.41,.58l-.57-.6Z"/>
        <path class="cls-1" d="M87.41,50.68h.94v.89h.02c.24-.52,.87-.89,1.63-.89,.96,0,1.8,.58,1.8,1.89v3.41h-.94v-3.15c0-.93-.53-1.28-1.13-1.28-.78,0-1.38,.5-1.38,1.65v2.77h-.94v-5.3Z"/>
      </g>
      <polygon class="cls-1" points="102.07 48.04 102.07 51.51 98.23 51.51 98.23 48.04 97.23 48.04 97.23 55.99 98.23 55.99 98.23 52.47 102.07 52.47 102.07 55.99 103.07 55.99 103.07 48.04 102.07 48.04"/>
      <g>
        <path class="cls-1" d="M108.79,55.09c1,0,1.63-.73,1.63-1.76s-.62-1.76-1.63-1.76-1.63,.73-1.63,1.76,.62,1.76,1.63,1.76m0-4.41c1.47,0,2.63,1.18,2.63,2.65s-1.16,2.65-2.63,2.65-2.63-1.18-2.63-2.65,1.16-2.65,2.63-2.65"/>
        <path class="cls-1" d="M115.45,53.3c0,1.01,.62,1.74,1.63,1.74s1.63-.73,1.63-1.74-.62-1.74-1.63-1.74-1.63,.73-1.63,1.74m-.94-2.62h.94v.84h.02c.37-.54,1.06-.84,1.73-.84,1.54,0,2.52,1.15,2.52,2.62s-.99,2.63-2.52,2.63c-.71,0-1.39-.33-1.73-.84h-.02v3.69h-.94v-8.09Z"/>
        <path class="cls-1" d="M126.79,52.92c-.02-.84-.48-1.47-1.43-1.47s-1.54,.8-1.54,1.47h2.97Zm-2.97,.77c0,.89,.8,1.47,1.67,1.47,.58,0,.99-.3,1.36-.76l.71,.55c-.52,.69-1.25,1.03-2.19,1.03-1.57,0-2.55-1.15-2.55-2.66s1.08-2.65,2.56-2.65c1.74,0,2.41,1.36,2.41,2.66v.34h-3.97Z"/>
        <path class="cls-1" d="M138.77,49.9c-.42-.54-1.11-.85-1.79-.85-1.66,0-2.76,1.33-2.76,3.01,0,1.56,1.03,2.89,2.76,2.89,.84,0,1.49-.38,1.93-.99l.85,.64c-.22,.31-1.11,1.29-2.8,1.29-2.35,0-3.8-1.96-3.8-3.82,0-2.3,1.58-3.95,3.85-3.95,.97,0,2,.36,2.59,1.15l-.84,.64Z"/>
        <path class="cls-1" d="M145.93,52.92c-.02-.84-.48-1.47-1.43-1.47s-1.54,.8-1.54,1.47h2.97Zm-2.97,.77c0,.89,.8,1.47,1.67,1.47,.58,0,.99-.3,1.36-.76l.71,.55c-.52,.69-1.25,1.03-2.19,1.03-1.57,0-2.55-1.15-2.55-2.66s1.08-2.65,2.56-2.65c1.74,0,2.41,1.36,2.41,2.66v.34h-3.97Z"/>
        <path class="cls-1" d="M150.03,50.68h.94v.89h.02c.24-.52,.87-.89,1.63-.89,.96,0,1.8,.58,1.8,1.89v3.41h-.94v-3.15c0-.93-.53-1.28-1.13-1.28-.78,0-1.38,.5-1.38,1.65v2.78h-.94v-5.31Z"/>
        <path class="cls-1" d="M159.86,50.68h-1.35v3.29c0,.55,0,1.14,.71,1.14,.22,0,.48-.03,.67-.15v.86c-.22,.13-.66,.17-.84,.17-1.45,0-1.47-.89-1.47-1.68v-3.62h-1.09v-.81h1.09v-1.83h.94v1.83h1.35v.81Z"/>
        <path class="cls-1" d="M165.65,52.92c-.02-.84-.48-1.47-1.43-1.47s-1.54,.8-1.54,1.47h2.97Zm-2.97,.77c0,.89,.8,1.47,1.67,1.47,.58,0,.99-.3,1.36-.76l.71,.55c-.52,.69-1.25,1.03-2.19,1.03-1.57,0-2.55-1.15-2.55-2.65s1.08-2.65,2.56-2.65c1.74,0,2.41,1.36,2.41,2.66v.34h-3.97Z"/>
        <path class="cls-1" d="M169.82,50.68h.94v.89h.02c.24-.52,.87-.89,1.48-.89,.15,0,.29,.02,.42,.06l-.04,1.01c-.16-.04-.31-.07-.46-.07-.92,0-1.42,.5-1.42,1.59v2.71h-.94v-5.3Z"/>
        <path class="cls-1" d="M78.4,.22c-15.69-1.76-27.11,8.9-27.11,23.85,0,7.45,2.83,13.82,7.61,18.14l.27-.38c2.33-3.31,2.79-7.19,1.34-10.97-.92-2.4-1.61-4.3-1.61-6.58,0-9.62,6.77-16.7,16.18-16.7s15.88,7.65,16.2,15.71c.13,3.15-.6,5.49-1.93,8.18-1.88,3.77-1.41,7.8,.66,11.47,.03,.06,.06,.12,.1,.17,6.45-5.1,9.87-13.67,8.37-23.64C97.06,10.08,87.85,1.28,78.4,.22"/>
      </g>
    </g>
  </g>
</svg>
